<svg id="Layer_1" width="208" height="208" viewBox="0 0 512 512" xmlns="http://www.w3.org/2000/svg" data-name="Layer 1"><path d="m474.29 37.72-1.12 82.29a124.619 124.619 0 0 1 -47.87 96.51l-3.24 2.53a381.347 381.347 0 0 0 -129.12-129.1l2.54-3.25a124.623 124.623 0 0 1 96.52-47.87z" fill="#f48c96"/><path d="m292.94 89.95-155.85 199.35 85.61 85.61 199.36-155.86a381.347 381.347 0 0 0 -129.12-129.1z" fill="#c4d4e8"/><path d="m137.09 289.3-27.24 34.85 78 78.01 34.85-27.25z" fill="#6d7486"/><path d="m162.92 395.52-.06.01-46.26-46.43a60.446 60.446 0 0 0 -12.98-1.4c-.5 0-1 .01-1.51.02a65.117 65.117 0 0 0 -63.65 63.65l-.75 62.91 62.92-.74a65.124 65.124 0 0 0 63.65-63.65c.02-.99.02-1.97 0-2.96a61.064 61.064 0 0 0 -1.36-11.41z" fill="#dd5d56"/><g fill="#6bbaf9"><path d="m235.22 276.78a23.6 23.6 0 1 1 -33.38 0 23.6 23.6 0 0 1 33.38 0z"/><path d="m288 224a23.6 23.6 0 1 1 -33.38 0 23.6 23.6 0 0 1 33.38 0z"/><path d="m340.78 171.22a23.6 23.6 0 1 1 -33.38 0 23.6 23.6 0 0 1 33.38 0z"/><path d="m222.7 374.91 47.28-36.96a74.207 74.207 0 0 1 -.07 104.87l-5.68 5.68-59.46-59.46-.05-.07z"/><path d="m137.09 289.3-14.05 17.98-.07-.05-59.47-59.46 5.68-5.68a74.228 74.228 0 0 1 104.88-.08z"/></g><path d="m422 38.83 52.284-.7.006-.405-82.29 1.105a124.623 124.623 0 0 0 -96.52 47.87l-2.54 3.25q9.207 5.564 18.056 11.627l14.484-14.877a124.623 124.623 0 0 1 96.52-47.87z" fill="#ff99a3"/><path d="m137.09 289.3-27.24 34.85 16.16 16.162 27.698-34.394z" fill="#b0b5ca"/><path d="m292.94 89.95-155.85 199.35 17.54 17.54 158.224-203.989q-9.738-6.751-19.914-12.901z" fill="#d4e1f4"/><path d="m98.812 362.6a36.29 36.29 0 0 1 16.108-12.87c.56-.22 1.11-.44 1.68-.63a60.446 60.446 0 0 0 -12.98-1.4c-.5 0-1 .01-1.51.02a65.117 65.117 0 0 0 -63.65 63.65l-.75 62.91 20.122-.237.628-52.673a65.113 65.113 0 0 1 40.352-58.77z" fill="#ff8b88"/><path d="m162.92 395.52-.06.01a36.338 36.338 0 1 1 -47.94-45.8c.56-.22 1.11-.44 1.68-.63a60.786 60.786 0 0 1 46.32 46.42z" fill="#f7d857"/><path d="m122.9 367.71a36.186 36.186 0 0 1 12.02-7.98c.56-.22 1.11-.44 1.68-.63 1.232.269 2.447.583 3.65.926a60.427 60.427 0 0 0 -23.65-10.926c-.57.19-1.12.41-1.68.63a36.34 36.34 0 0 0 8.22 69.6c-.079-.078-.161-.15-.24-.228a36.34 36.34 0 0 1 0-51.392z" fill="#fff655"/><path d="m137.09 289.3-14.05 17.98-.07-.05-59.47-59.46 5.68-5.68a74.228 74.228 0 0 1 104.88-.08z" fill="#6bbaf9"/><path d="m170.8 246.183 3.262-4.173a74.228 74.228 0 0 0 -104.88.08l-5.68 5.68 18.5 18.5 5.178-5.178a74.254 74.254 0 0 1 83.62-14.909z" fill="#9fd8ff"/><path d="m211.84 286.78a23.626 23.626 0 0 1 27.619-4.231 23.6 23.6 0 1 0 -31.853 31.845 23.627 23.627 0 0 1 4.234-27.614z" fill="#3996e2"/><path d="m264.62 234a23.608 23.608 0 0 1 27.617-4.237 23.606 23.606 0 1 0 -31.851 31.85 23.626 23.626 0 0 1 4.234-27.613z" fill="#3996e2"/><path d="m317.4 181.22a23.608 23.608 0 0 1 27.617-4.237 23.605 23.605 0 1 0 -31.851 31.851 23.627 23.627 0 0 1 4.234-27.614z" fill="#3996e2"/><path d="m332.6 85.65a6 6 0 0 1 -3.476-10.9 100.419 100.419 0 0 1 54.186-18.418 6 6 0 1 1 .488 11.99 88.415 88.415 0 0 0 -47.732 16.221 5.965 5.965 0 0 1 -3.466 1.107z" fill="#f4f8fc"/><path d="m401.28 68.051a6 6 0 0 1 -.079-12l7.753-.105a6 6 0 0 1 .162 12l-7.753.105z" fill="#f4f8fc"/></svg>